<?xml version="1.0" encoding="UTF-8"?>
<svg xmlns="http://www.w3.org/2000/svg" xmlns:xlink="http://www.w3.org/1999/xlink" width="24px" height="24px" viewBox="0 0 24 24" version="1.1">
<g id="surface1">
<path style=" stroke:none;fill-rule:nonzero;fill:rgb(13.725491%,15.294118%,28.235295%);fill-opacity:1;" d="M 7.628906 0.234375 C 7.664062 0.234375 7.699219 0.234375 7.738281 0.234375 C 7.859375 0.234375 7.980469 0.234375 8.101562 0.234375 C 8.1875 0.234375 8.273438 0.234375 8.363281 0.230469 C 8.597656 0.230469 8.835938 0.230469 9.070312 0.230469 C 9.21875 0.230469 9.367188 0.230469 9.515625 0.226562 C 10.03125 0.226562 10.550781 0.226562 11.066406 0.226562 C 11.546875 0.226562 12.027344 0.222656 12.507812 0.21875 C 12.921875 0.21875 13.335938 0.214844 13.75 0.214844 C 13.996094 0.214844 14.242188 0.214844 14.488281 0.214844 C 14.71875 0.210938 14.953125 0.210938 15.183594 0.214844 C 15.269531 0.214844 15.355469 0.210938 15.4375 0.210938 C 16.332031 0.199219 17.015625 0.488281 17.667969 1.101562 C 18.191406 1.621094 18.609375 2.484375 18.617188 3.222656 C 18.605469 3.714844 18.414062 4.179688 18.253906 4.640625 C 18.207031 4.78125 18.160156 4.917969 18.113281 5.058594 C 18.035156 5.292969 17.957031 5.527344 17.875 5.761719 C 17.773438 6.058594 17.671875 6.359375 17.574219 6.660156 C 17.484375 6.917969 17.398438 7.175781 17.3125 7.4375 C 17.285156 7.519531 17.253906 7.601562 17.226562 7.683594 C 17.175781 7.839844 17.125 7.992188 17.070312 8.144531 C 17.054688 8.191406 17.039062 8.238281 17.023438 8.285156 C 17.011719 8.328125 16.996094 8.367188 16.980469 8.410156 C 16.96875 8.449219 16.957031 8.484375 16.945312 8.523438 C 16.898438 8.625 16.851562 8.703125 16.773438 8.789062 C 16.65625 8.824219 16.65625 8.824219 16.503906 8.847656 C 16.476562 8.851562 16.449219 8.859375 16.421875 8.863281 C 16.328125 8.878906 16.234375 8.890625 16.140625 8.90625 C 16.074219 8.914062 16.007812 8.925781 15.941406 8.9375 C 15.796875 8.960938 15.648438 8.980469 15.5 9.003906 C 15.230469 9.046875 14.957031 9.089844 14.6875 9.132812 C 14.539062 9.15625 14.394531 9.179688 14.25 9.203125 C 14.152344 9.21875 14.058594 9.234375 13.960938 9.25 C 13.824219 9.273438 13.691406 9.292969 13.554688 9.316406 C 13.492188 9.324219 13.492188 9.324219 13.429688 9.335938 C 13.191406 9.371094 12.960938 9.394531 12.71875 9.378906 C 12.582031 9.269531 12.554688 9.183594 12.503906 9.019531 C 12.484375 8.714844 12.660156 8.429688 12.800781 8.167969 C 13.117188 7.550781 13.308594 6.894531 13.511719 6.230469 C 13.558594 6.074219 13.605469 5.917969 13.65625 5.765625 C 13.78125 5.351562 13.910156 4.9375 14.027344 4.519531 C 12.0625 4.5 12.0625 4.5 10.054688 4.480469 C 10.183594 4.820312 10.308594 5.164062 10.4375 5.515625 C 10.773438 6.421875 11.105469 7.328125 11.429688 8.238281 C 11.734375 9.09375 12.042969 9.945312 12.359375 10.796875 C 12.726562 11.789062 13.085938 12.785156 13.445312 13.785156 C 13.453125 13.8125 13.464844 13.835938 13.472656 13.867188 C 13.519531 13.996094 13.570312 14.128906 13.617188 14.261719 C 13.703125 14.5 13.789062 14.742188 13.878906 14.980469 C 13.894531 15.019531 13.910156 15.0625 13.925781 15.109375 C 13.957031 15.1875 13.984375 15.265625 14.015625 15.339844 C 14.027344 15.375 14.042969 15.410156 14.054688 15.445312 C 14.066406 15.476562 14.078125 15.503906 14.089844 15.535156 C 14.148438 15.78125 14.105469 15.988281 14.03125 16.222656 C 14.015625 16.265625 14.015625 16.265625 14.003906 16.308594 C 13.972656 16.402344 13.945312 16.492188 13.914062 16.582031 C 13.890625 16.648438 13.871094 16.714844 13.851562 16.777344 C 13.796875 16.949219 13.738281 17.121094 13.683594 17.292969 C 13.628906 17.464844 13.574219 17.632812 13.519531 17.804688 C 13.402344 18.164062 13.289062 18.523438 13.171875 18.882812 C 13.140625 18.96875 13.113281 19.054688 13.085938 19.144531 C 12.734375 20.222656 12.734375 20.222656 12.523438 20.667969 C 12.496094 20.726562 12.496094 20.726562 12.46875 20.789062 C 12.273438 21.210938 11.996094 21.527344 11.652344 21.839844 C 11.621094 21.867188 11.589844 21.898438 11.558594 21.929688 C 11.496094 21.984375 11.433594 22.042969 11.371094 22.101562 C 11.292969 22.175781 11.214844 22.246094 11.136719 22.316406 C 10.71875 22.707031 10.292969 23.035156 9.804688 23.324219 C 9.769531 23.34375 9.738281 23.367188 9.707031 23.390625 C 9.578125 23.457031 9.476562 23.476562 9.332031 23.496094 C 9.28125 23.503906 9.226562 23.507812 9.175781 23.515625 C 9.121094 23.523438 9.066406 23.527344 9.011719 23.535156 C 8.953125 23.542969 8.898438 23.550781 8.839844 23.554688 C 8.726562 23.570312 8.609375 23.585938 8.492188 23.597656 C 8.335938 23.617188 8.175781 23.636719 8.019531 23.660156 C 7.925781 23.671875 7.832031 23.683594 7.742188 23.695312 C 7.699219 23.699219 7.65625 23.703125 7.613281 23.710938 C 7.367188 23.738281 7.132812 23.75 6.886719 23.746094 C 6.75 23.519531 6.652344 23.292969 6.5625 23.042969 C 6.546875 23.003906 6.535156 22.964844 6.519531 22.925781 C 6.472656 22.800781 6.425781 22.671875 6.378906 22.542969 C 6.316406 22.367188 6.25 22.191406 6.1875 22.015625 C 6.171875 21.972656 6.15625 21.929688 6.140625 21.886719 C 6.042969 21.621094 5.941406 21.355469 5.839844 21.09375 C 5.816406 21.03125 5.792969 20.96875 5.769531 20.90625 C 5.734375 20.824219 5.703125 20.738281 5.667969 20.652344 C 5.417969 20.023438 5.417969 20.023438 5.492188 19.730469 C 5.609375 19.570312 5.75 19.457031 5.945312 19.410156 C 6.078125 19.398438 6.210938 19.394531 6.34375 19.394531 C 6.394531 19.390625 6.441406 19.390625 6.492188 19.390625 C 6.648438 19.386719 6.800781 19.386719 6.957031 19.382812 C 7.109375 19.382812 7.265625 19.378906 7.421875 19.375 C 7.515625 19.375 7.613281 19.371094 7.707031 19.371094 C 7.949219 19.367188 8.113281 19.355469 8.324219 19.226562 C 8.351562 19.226562 8.378906 19.226562 8.410156 19.226562 C 8.667969 18.722656 8.851562 18.175781 9.0625 17.648438 C 9.109375 17.53125 9.15625 17.410156 9.203125 17.289062 C 9.234375 17.214844 9.261719 17.136719 9.292969 17.058594 C 9.359375 16.886719 9.429688 16.714844 9.503906 16.542969 C 9.515625 16.515625 9.527344 16.488281 9.539062 16.457031 C 9.570312 16.382812 9.605469 16.308594 9.636719 16.234375 C 9.71875 15.945312 9.597656 15.683594 9.496094 15.414062 C 9.480469 15.375 9.464844 15.339844 9.449219 15.300781 C 9.417969 15.21875 9.386719 15.132812 9.355469 15.050781 C 9.269531 14.824219 9.183594 14.597656 9.097656 14.367188 C 9.078125 14.320312 9.0625 14.273438 9.042969 14.222656 C 8.832031 13.667969 8.628906 13.113281 8.425781 12.558594 C 8.347656 12.351562 8.273438 12.148438 8.199219 11.941406 C 8.179688 11.894531 8.160156 11.84375 8.144531 11.792969 C 7.976562 11.34375 7.8125 10.898438 7.644531 10.449219 C 7.398438 9.785156 7.152344 9.121094 6.90625 8.457031 C 6.605469 7.648438 6.304688 6.839844 6.007812 6.03125 C 5.953125 5.890625 5.902344 5.746094 5.847656 5.605469 C 5.828125 5.550781 5.808594 5.496094 5.789062 5.441406 C 5.738281 5.3125 5.691406 5.183594 5.644531 5.054688 C 5.570312 4.851562 5.496094 4.648438 5.410156 4.445312 C 5.25 4.074219 5.203125 3.757812 5.226562 3.359375 C 5.230469 3.273438 5.234375 3.183594 5.234375 3.097656 C 5.261719 2.308594 5.5625 1.742188 6.097656 1.179688 C 6.210938 1.058594 6.210938 1.058594 6.3125 0.929688 C 6.441406 0.78125 6.578125 0.6875 6.738281 0.582031 C 6.78125 0.558594 6.78125 0.558594 6.824219 0.527344 C 6.898438 0.480469 6.976562 0.429688 7.054688 0.378906 C 7.085938 0.359375 7.113281 0.335938 7.144531 0.316406 C 7.304688 0.234375 7.453125 0.234375 7.628906 0.234375 Z M 7.628906 0.234375 "/>
</g>
</svg>
