<?xml version="1.0" encoding="UTF-8"?>
<svg version="1.1" xmlns="http://www.w3.org/2000/svg" width="568" height="568">
<path d="M0 0 C0.85657947 -0.0082078 1.71315895 -0.0164156 2.59569538 -0.02487212 C5.46566148 -0.04854213 8.33523473 -0.05077106 11.20529175 -0.05293274 C13.26385211 -0.0651846 15.32240562 -0.07863707 17.38095093 -0.09320068 C22.97680076 -0.12828106 28.57253255 -0.14351707 34.16847849 -0.15303779 C37.67079401 -0.15961701 41.17307838 -0.16996388 44.67538071 -0.18154335 C56.91290147 -0.22130737 69.15032809 -0.24330374 81.38790894 -0.25117493 C92.76060695 -0.25902335 104.13262615 -0.30813838 115.505108 -0.37624043 C125.28973431 -0.4327682 135.07413662 -0.45809473 144.85892475 -0.46012241 C150.69313175 -0.46195474 156.52662476 -0.47632767 162.36066055 -0.52293968 C167.86201696 -0.5659557 173.36209986 -0.56977879 178.86355591 -0.54514503 C180.86808182 -0.5425834 182.87268287 -0.55335023 184.87704086 -0.579422 C206.00755981 -0.83745716 222.20678094 5.92869041 237.58370972 20.50444031 C250.04958091 32.76167768 259.87783242 53.19922882 260.1103487 70.69847393 C259.78670593 82.33421506 255.24656937 93.34807973 251.49987197 104.23805833 C250.37048255 107.53736007 249.26950535 110.84613485 248.1648407 114.15377808 C246.31127716 119.69065792 244.438958 125.22088126 242.55319214 130.74687195 C240.13515205 137.83289758 237.74810149 144.92896071 235.37069225 152.02870655 C233.31792022 158.15847957 231.25216178 164.28386133 229.18376374 170.40837646 C228.52249905 172.36780731 227.86281699 174.32776609 227.20326805 176.28777504 C225.9753133 179.93334407 224.73390459 183.57424969 223.49069214 187.21464539 C223.12744843 188.29564514 222.76420471 189.3766449 222.38995361 190.49040222 C222.04926346 191.48103165 221.7085733 192.47166107 221.3575592 193.49230957 C221.06535083 194.35146375 220.77314245 195.21061792 220.47207928 196.09580708 C219.41149401 198.57032828 218.27045117 200.40701742 216.47824097 202.41459656 C213.64230347 203.29252625 213.64230347 203.29252625 210.10324097 203.83647156 C209.44664993 203.94238617 208.7900589 204.04830078 208.11357117 204.15742493 C205.9040399 204.50963365 203.69156286 204.8371214 201.47824097 205.16459656 C199.90989303 205.40871169 198.34178274 205.65435774 196.77389526 205.90141296 C193.2969039 206.44670982 189.81849305 206.98165662 186.33908081 207.51127625 C179.90658724 208.49552344 173.48381653 209.53788341 167.06027222 210.57865906 C163.61001895 211.13390376 160.15955481 211.68781077 156.70895386 212.2408905 C154.44014102 212.60508998 152.17158289 212.97088 149.90328979 213.33830261 C146.68585956 213.85775028 143.46706911 214.36780031 140.24777222 214.87553406 C138.81531914 215.10945358 138.81531914 215.10945358 137.35392761 215.34809875 C131.65782487 216.2353102 126.2454206 216.73485796 120.47824097 216.41459656 C117.25020389 213.8321669 116.59103309 211.79278193 115.41574097 207.85209656 C114.89605858 200.65649426 119.13368563 193.95247318 122.38522339 187.75663757 C129.91382268 173.10477311 134.48952752 157.55177909 139.25088501 141.85002136 C140.36718201 138.18068045 141.50085061 134.51671354 142.63253784 130.85209656 C145.65132954 121.05960573 148.6629826 111.26800085 151.47824097 101.41459656 C104.94824097 100.91959656 104.94824097 100.91959656 57.47824097 100.41459656 C60.46886597 108.49959656 63.45949097 116.58459656 66.54074097 124.91459656 C74.46250246 146.37622154 82.26674685 167.87667524 89.97824097 189.41459656 C97.21238594 209.61871857 104.5291699 229.78839538 111.97824097 249.91459656 C120.68318001 273.43457038 129.20761545 297.01594686 137.66574097 320.62553406 C137.89589087 321.26769175 138.12604076 321.90984943 138.3631649 322.57146645 C139.48384329 325.69882567 140.60256736 328.82684823 141.71838379 331.95594788 C143.74320708 337.62528919 145.79300281 343.28166314 147.92111206 348.91313171 C148.29825851 349.9194313 148.67540497 350.9257309 149.0639801 351.96252441 C149.75899211 353.8106929 150.463005 355.65551549 151.17826843 357.49594116 C151.48375107 358.31125809 151.7892337 359.12657501 152.10397339 359.96659851 C152.37110641 360.66187149 152.63823944 361.35714447 152.91346741 362.07348633 C154.31173027 367.86959246 153.30856363 372.81567337 151.50973511 378.3901825 C151.19492187 379.38004654 151.19492187 379.38004654 150.87374878 380.38990784 C150.17997175 382.56283535 149.47185196 384.73078959 148.76339722 386.89897156 C148.26844658 388.43827104 147.77435839 389.97784807 147.28108215 391.51768494 C145.97676205 395.58073356 144.66005964 399.63966714 143.34091187 403.69792175 C142.03426555 407.7259007 140.74041759 411.75798354 139.44503784 415.78959656 C136.70923128 424.29474414 133.94702916 432.79112866 131.17333984 441.28398895 C130.50138203 443.34366488 129.83151726 445.4040091 129.162323 447.46458435 C120.85214384 473.03264329 120.85214384 473.03264329 115.85324097 483.53959656 C115.21515503 484.96078796 115.21515503 484.96078796 114.56417847 486.41069031 C109.9034142 496.43965627 103.39763356 503.88012086 95.29074097 511.28959656 C94.54751587 511.97795593 93.80429077 512.66631531 93.0385437 513.37553406 C91.54786347 514.75446553 90.05451688 516.13052102 88.55831909 517.50346375 C86.7155685 519.19654492 84.88341238 520.8999249 83.05636597 522.60990906 C73.18051837 531.82434381 63.09692469 539.54693422 51.47824097 546.41459656 C50.71906372 546.92401794 49.95988647 547.43343933 49.17770386 547.95829773 C46.11891712 549.6084436 43.74799385 550.05064522 40.30636597 550.47709656 C39.09617798 550.63275085 37.88598999 550.78840515 36.63912964 550.94877625 C35.34853638 551.10249695 34.05794312 551.25621765 32.72824097 551.41459656 C31.38608726 551.58198975 30.04404695 551.75029449 28.70211792 551.91947937 C25.96437548 552.26250286 23.22589145 552.59833168 20.48654175 552.92826843 C16.74059526 553.38013822 12.99799477 553.85612889 9.25558472 554.33647156 C7.05907385 554.61333734 4.86246431 554.88942173 2.66574097 555.16459656 C1.66639526 555.29221375 0.66704956 555.41983093 -0.36257935 555.55131531 C-6.13080081 556.25097011 -11.71101324 556.53403635 -17.52175903 556.41459656 C-20.79326779 551.05551495 -23.08287192 545.69106189 -25.20925903 539.79350281 C-25.54889175 538.86825302 -25.88852448 537.94300323 -26.2384491 536.98971558 C-27.33903625 533.98771713 -28.43080657 530.9826084 -29.52175903 527.97709656 C-31.03903141 523.81611372 -32.55940739 519.65626926 -34.08035278 515.49662781 C-34.45711655 514.46432037 -34.83388031 513.43201294 -35.22206116 512.36842346 C-37.51952753 506.09090235 -39.87820368 499.8416481 -42.30691528 493.61381531 C-42.87150615 492.15545391 -43.43596409 490.69704105 -44.00027466 489.23857117 C-44.77864813 487.22827656 -45.56174177 485.22077249 -46.36380005 483.21980286 C-52.34248474 468.29705815 -52.34248474 468.29705815 -50.52175903 461.41459656 C-47.75470263 457.57867547 -44.42114195 454.87748808 -39.7936554 453.7497406 C-36.63213588 453.46488514 -33.53196946 453.39379486 -30.35769653 453.39897156 C-29.20685577 453.37159912 -28.05601501 453.34422668 -26.87030029 453.31602478 C-23.21222748 453.23356714 -19.55559356 453.19640413 -15.89675903 453.16459656 C-12.23139425 453.11164277 -8.56670127 453.0488747 -4.90179443 452.97032166 C-2.62714955 452.92370624 -0.35211171 452.89286816 1.92297363 452.87986755 C7.58422352 452.78565572 11.53146433 452.46766149 16.47824097 449.41459656 C17.13824097 449.41459656 17.79824097 449.41459656 18.47824097 449.41459656 C24.59960314 437.49006608 29.00770804 424.55882239 33.91574097 412.10209656 C35.02933109 409.27823761 36.14324886 406.45451009 37.25817871 403.63117981 C37.98074833 401.79861553 38.70113667 399.96518956 39.41925049 398.13087463 C41.02043726 394.04992798 42.64459658 389.98770137 44.38497925 385.96391296 C44.67260635 385.28722061 44.96023346 384.61052826 45.25657654 383.91333008 C46.01351784 382.14255687 46.78819139 380.37939175 47.56442261 378.61698914 C49.52215846 371.75628349 46.64397803 365.60642365 44.18136597 359.23490906 C43.84058014 358.33502762 43.49979431 357.43514618 43.14868164 356.50799561 C42.40601463 354.54873219 41.66017136 352.59067046 40.91152954 350.63368225 C38.85359769 345.25256252 36.82008823 339.86220012 34.78292847 334.47319031 C34.3520694 333.3353157 33.92121033 332.1974411 33.47729492 331.02508545 C28.5192031 317.91481572 23.68616455 304.75889851 18.85324097 291.60209656 C17.07135071 286.75549883 15.28866065 281.90919569 13.50558472 277.06303406 C13.07439835 275.89102951 12.64321198 274.71902496 12.19895935 273.51150513 C8.29567082 262.90757051 4.36220401 252.3150271 0.41574097 241.72709656 C-5.43609706 226.02558418 -11.26714064 210.31650695 -17.08425903 194.60209656 C-24.1752479 175.44819201 -31.27073371 156.29596559 -38.37353516 137.1464386 C-39.62013256 133.78553805 -40.86650215 130.42455311 -42.11264038 127.06348228 C-42.58902018 125.77899983 -43.06564007 124.49460638 -43.54251099 123.21030617 C-44.6759132 120.15748242 -45.80533127 117.10329521 -46.9284668 114.04667664 C-48.70816191 109.21506352 -50.49295033 104.40273289 -52.5083313 99.66386414 C-56.22588316 90.83375912 -57.34990531 83.39481324 -56.82180786 73.93241882 C-56.70905516 71.84832827 -56.65584296 69.76869454 -56.60964966 67.68217468 C-55.97463738 49.04489245 -48.83417709 35.65966386 -36.20535278 22.30912781 C-33.48964985 19.46215633 -33.48964985 19.46215633 -31.15066528 16.37553406 C-28.0917537 12.93028148 -24.88522473 10.67905845 -21.02175903 8.22709656 C-20.04529419 7.58997742 -20.04529419 7.58997742 -19.04910278 6.93998718 C-17.21564508 5.74916567 -15.37677364 4.57155265 -13.52175903 3.41459656 C-12.83404985 2.90415393 -12.14634068 2.3937113 -11.43779182 1.86780071 C-7.61576982 -0.03690292 -4.175823 -0.01718584 0 0 Z " fill="#232748" transform="translate(180.52175903320313,5.5854034423828125)"/>
</svg>
