<?xml version="1.0" encoding="UTF-8"?>
<svg version="1.1" xmlns="http://www.w3.org/2000/svg" width="200" height="200">
<path d="M0 0 C2.22779324 0.00315861 4.45425567 -0.02030957 6.68188477 -0.0456543 C8.10571122 -0.04792771 9.52954123 -0.04863059 10.95336914 -0.04760742 C12.24235107 -0.05058838 13.53133301 -0.05356934 14.859375 -0.05664062 C18.51544299 0.33886932 20.35006962 1.19016959 23.30102539 3.31567383 C23.89915039 3.70754883 24.49727539 4.09942383 25.11352539 4.50317383 C27.08158685 7.50705711 26.62744624 10.86208851 26.30102539 14.31567383 C25.61509876 17.18763762 24.62954253 19.88262178 23.55102539 22.62817383 C23.17204102 23.68101563 23.17204102 23.68101563 22.78540039 24.75512695 C20.8595764 29.80560038 19.04639791 31.96443579 14.30102539 34.30004883 C13.64102539 34.55270508 12.98102539 34.80536133 12.30102539 35.06567383 C11.64102539 35.32864258 10.98102539 35.59161133 10.30102539 35.86254883 C7.96715137 36.39131716 6.54978925 36.05856903 4.30102539 35.31567383 C5.04739258 34.69305664 5.79375977 34.07043945 6.56274414 33.42895508 C10.2036654 29.78803382 11.49570278 25.28901171 13.11352539 20.50317383 C14.16540039 17.47129883 15.21727539 14.43942383 16.30102539 11.31567383 C7.39102539 10.98567383 -1.51897461 10.65567383 -10.69897461 10.31567383 C-7.4321317 19.49253255 -4.13614727 28.65759527 -0.78686523 37.8046875 C-0.30713803 39.1158871 0.17168698 40.42741709 0.6496582 41.73925781 C1.35706441 43.6807959 2.06703701 45.62137847 2.77758789 47.56176758 C3.19089355 48.69283936 3.60419922 49.82391113 4.0300293 50.98925781 C4.95133175 53.40046526 5.91881076 55.73164778 6.9675293 58.08520508 C8.45418714 61.68671672 8.51362401 62.70543703 7.30102539 66.31567383 C6.89368164 67.56219727 6.48633789 68.8087207 6.06665039 70.09301758 C5.56566721 71.48126835 5.06035116 72.86796207 4.55102539 74.25317383 C4.31125977 74.9434668 4.07149414 75.63375977 3.82446289 76.3449707 C1.64631853 82.26750241 -1.14970581 86.6161613 -6.51147461 90.19067383 C-10.50946933 91.60173079 -13.47988111 91.5339028 -17.69897461 91.31567383 C-19.1971852 87.94469999 -19.69897461 86.11125264 -19.69897461 82.31567383 C-18.77665039 82.15131836 -18.77665039 82.15131836 -17.83569336 81.98364258 C-17.02745117 81.82508789 -16.21920898 81.6665332 -15.38647461 81.50317383 C-14.5859668 81.35235352 -13.78545898 81.2015332 -12.96069336 81.04614258 C-10.32866273 80.19607396 -9.36019712 79.51619177 -7.69897461 77.31567383 C-6.43061316 74.61206884 -6.43061316 74.61206884 -5.44897461 71.56567383 C-5.09319336 70.56020508 -4.73741211 69.55473633 -4.37084961 68.51879883 C-2.93573785 61.67698695 -5.45735571 55.55824844 -7.76147461 49.19067383 C-8.06585449 48.33481689 -8.37023437 47.47895996 -8.68383789 46.59716797 C-11.96696041 37.43351587 -15.44665147 28.34319928 -18.9621582 19.26660156 C-20.91427319 14.09783056 -21.76552069 9.71540251 -19.44897461 4.50317383 C-14.6350599 -1.51421955 -7.01944802 -0.02087511 0 0 Z " fill="#30A4D9" transform="translate(97.698974609375,54.684326171875)"/>
<path d="M0 0 C2.22779324 0.00315861 4.45425567 -0.02030957 6.68188477 -0.0456543 C8.10571122 -0.04792771 9.52954123 -0.04863059 10.95336914 -0.04760742 C12.24235107 -0.05058838 13.53133301 -0.05356934 14.859375 -0.05664062 C18.51544299 0.33886932 20.35006962 1.19016959 23.30102539 3.31567383 C23.89915039 3.70754883 24.49727539 4.09942383 25.11352539 4.50317383 C27.08158685 7.50705711 26.62744624 10.86208851 26.30102539 14.31567383 C25.61509876 17.18763762 24.62954253 19.88262178 23.55102539 22.62817383 C23.17204102 23.68101563 23.17204102 23.68101563 22.78540039 24.75512695 C20.8595764 29.80560038 19.04639791 31.96443579 14.30102539 34.30004883 C13.64102539 34.55270508 12.98102539 34.80536133 12.30102539 35.06567383 C11.64102539 35.32864258 10.98102539 35.59161133 10.30102539 35.86254883 C7.96715137 36.39131716 6.54978925 36.05856903 4.30102539 35.31567383 C5.0499707 34.68790039 5.79891602 34.06012695 6.57055664 33.41333008 C10.15197076 29.82939117 11.41085282 25.4718164 12.98852539 20.75317383 C13.57387921 19.06371719 14.16105602 17.37489084 14.75024414 15.68676758 C15.0012085 14.94354248 15.25217285 14.20031738 15.51074219 13.43457031 C16.30102539 11.31567383 16.30102539 11.31567383 17.39794922 9.29248047 C18.57804458 7.07150681 18.57804458 7.07150681 18.30102539 3.31567383 C15.53484976 1.93258601 13.29084539 2.20357187 10.19946289 2.21801758 C8.38188477 2.22285156 8.38188477 2.22285156 6.52758789 2.2277832 C5.25657227 2.23616211 3.98555664 2.24454102 2.67602539 2.25317383 C0.75790039 2.25994141 0.75790039 2.25994141 -1.19897461 2.2668457 C-4.36568753 2.2786618 -7.53230817 2.29513568 -10.69897461 2.31567383 C-11.35897461 3.96567383 -12.01897461 5.61567383 -12.69897461 7.31567383 C-13.35897461 7.31567383 -14.01897461 7.31567383 -14.69897461 7.31567383 C-14.69897461 13.25567383 -14.69897461 19.19567383 -14.69897461 25.31567383 C-15.35897461 25.31567383 -16.01897461 25.31567383 -16.69897461 25.31567383 C-21.5443067 13.35376022 -21.5443067 13.35376022 -20.69897461 7.31567383 C-19.47502438 4.56178581 -18.54665783 2.88707696 -16.04052734 1.19775391 C-11.03232287 -0.68887343 -5.30472655 -0.0157757 0 0 Z " fill="#5EA1CA" transform="translate(97.698974609375,54.684326171875)"/>
<path d="M0 0 C1.79727539 -0.00386719 1.79727539 -0.00386719 3.63085938 -0.0078125 C4.88833984 -0.00007813 6.14582031 0.00765625 7.44140625 0.015625 C9.32182617 0.00402344 9.32182617 0.00402344 11.24023438 -0.0078125 C12.43970703 -0.00523438 13.63917969 -0.00265625 14.875 0 C15.9777124 0.00225586 17.0804248 0.00451172 18.21655273 0.00683594 C21.00390625 0.265625 21.00390625 0.265625 24.00390625 2.265625 C23.67390625 4.575625 23.34390625 6.885625 23.00390625 9.265625 C12.77390625 9.265625 2.54390625 9.265625 -7.99609375 9.265625 C-7.99609375 0.76274952 -7.77623893 0.01592443 0 0 Z " fill="#0D619E" transform="translate(92.99609375,55.734375)"/>
<path d="M0 0 C0.66 0 1.32 0 2 0 C4.74115392 5.36809309 5.86007223 9.95715488 5 16 C3.06885753 20.84132926 -0.69005247 23.38303673 -4.875 26.3125 C-8.25232863 27.40516514 -11.46448253 27.11785058 -15 27 C-16.49821059 23.62902617 -17 21.79557881 -17 18 C-16.38511719 17.89042969 -15.77023438 17.78085938 -15.13671875 17.66796875 C-14.32847656 17.50941406 -13.52023438 17.35085937 -12.6875 17.1875 C-11.88699219 17.03667969 -11.08648437 16.88585937 -10.26171875 16.73046875 C-7.61773074 15.87653825 -6.65060817 15.22808042 -5 13 C-3.81157718 10.08487157 -3.81157718 10.08487157 -2.875 6.875 C-1.08333333 1.08333333 -1.08333333 1.08333333 0 0 Z " fill="#1D6BA4" transform="translate(95,119)"/>
<path d="M0 0 C0.28381864 3.26882314 0.52117491 6.53940391 0.75 9.8125 C0.83121094 10.74126953 0.91242188 11.67003906 0.99609375 12.62695312 C1.05410156 13.51962891 1.11210938 14.41230469 1.171875 15.33203125 C1.2347168 16.15421143 1.29755859 16.9763916 1.36230469 17.82348633 C1 20 1 20 -0.88574219 21.73022461 C-2.89855207 22.93907267 -4.80883715 23.91119547 -7 24.75 C-7.66 25.01296875 -8.32 25.2759375 -9 25.546875 C-11.33387402 26.07564333 -12.75123614 25.7428952 -15 25 C-14.25105469 24.37609375 -13.50210938 23.7521875 -12.73046875 23.109375 C-9.10787785 19.48806101 -7.88324323 15.02305573 -6.3125 10.25 C-5.73162136 8.52388799 -5.14469127 6.79979673 -4.55078125 5.078125 C-4.29981689 4.31918945 -4.04885254 3.56025391 -3.7902832 2.77832031 C-2.93749214 0.85934282 -2.23954704 0 0 0 Z " fill="#34A6DA" transform="translate(117,65)"/>
<path d="M0 0 C-0.66 1.98 -1.32 3.96 -2 6 C-2.66 6 -3.32 6 -4 6 C-4 11.94 -4 17.88 -4 24 C-4.66 24 -5.32 24 -6 24 C-10.84533209 12.03808639 -10.84533209 12.03808639 -10 6 C-7.45964632 0.6883514 -5.74400127 -0.15115793 0 0 Z " fill="#2280B9" transform="translate(87,56)"/>
<path d="M0 0 C0.99 0.33 1.98 0.66 3 1 C3.08703823 4.43734063 3.14040272 7.87439837 3.1875 11.3125 C3.22520508 12.77719727 3.22520508 12.77719727 3.26367188 14.27148438 C3.27817383 15.67817383 3.27817383 15.67817383 3.29296875 17.11328125 C3.3086792 17.97735596 3.32438965 18.84143066 3.34057617 19.73168945 C2.93240678 22.45018536 2.10407096 23.30363829 0 25 C-0.19676145 21.39627603 -0.38081639 17.7920131 -0.5625 14.1875 C-0.61857422 13.16333984 -0.67464844 12.13917969 -0.73242188 11.08398438 C-0.78076172 10.10107422 -0.82910156 9.11816406 -0.87890625 8.10546875 C-0.9260376 7.19949951 -0.97316895 6.29353027 -1.02172852 5.36010742 C-1 3 -1 3 0 0 Z " fill="#268DC5" transform="translate(117,59)"/>
<path d="M0 0 C0.33 0 0.66 0 1 0 C1 6.93 1 13.86 1 21 C-2.43744462 15.84383306 -3.56252888 11.18781764 -3 5 C-1.5625 2.0625 -1.5625 2.0625 0 0 Z " fill="#3C86B8" transform="translate(80,57)"/>
<path d="M0 0 C0.66 0 1.32 0 2 0 C2.28571429 8.57142857 2.28571429 8.57142857 0 12 C-0.33 12 -0.66 12 -1 12 C-1.02687279 10.18757948 -1.04633715 8.37504767 -1.0625 6.5625 C-1.07410156 5.55316406 -1.08570312 4.54382813 -1.09765625 3.50390625 C-1 1 -1 1 0 0 Z " fill="#2B7AB0" transform="translate(122,61)"/>
<path d="M0 0 C0.99 0 1.98 0 3 0 C3 2.31 3 4.62 3 7 C2.01 7 1.02 7 0 7 C0 4.69 0 2.38 0 0 Z " fill="#367FB1" transform="translate(77,62)"/>
</svg>
