<svg xmlns="http://www.w3.org/2000/svg" viewBox="190 135 125 235" shape-rendering="geometricPrecision"><path fill="#242748" d="M230.4336 137.69922a8951 8951 0 0 0 4.81104-.01299c3.35119-.00743 6.70227-.00719 10.05346-.0019 4.27455.00579 8.54868-.01115 12.82316-.03435 3.30905-.0148 6.618-.0156 9.92707-.01249a774 774 0 0 0 4.72532-.01581C288.59333 137.53246 288.59333 137.53246 296 141l1.90306.86894c6.48679 3.31395 10.30659 8.26995 12.60085 15.04903 1.20368 5.05166.75045 10.06458-.50391 15.08203h-2l.25 2.375c-.34764 5.04075-2.28527 9.01105-4.25 13.625-.86393 2.18366-1.71778 4.37134-2.5625 6.5625l-1.28906 3.32422c-.97664 2.64754-1.80166 5.2802-2.58594 7.98828-1.63703 4.73785-3.37212 8.20294-7.5625 11.125-4.85486 2.1933-9.9475 3.71533-15.02344 5.30273-2.24412.74287-2.24412.74287-5.25781 2.36915C267 226 267 226 263 226v2h-5c.1875-2.25.1875-2.25 1-5 1.65789-1.34423 3.32576-2.67618 5-4 4.01843-5.845 5.8914-12.27554 8-19 .66319-2.00116 1.32888-4.00149 2-6h2l.3125-2.5625c.61644-3.0822 1.55755-5.5806 2.85547-8.42578 1.60891-3.8901 2.6843-7.96618 3.83203-12.01172h2l-.125-2.25C285 166 285 166 287 162h-72l4 8c.69335 1.921 1.34438 3.85822 1.9375 5.8125 1.25548 3.92276 2.6533 7.6016 4.4375 11.3125 2.58458 5.49322 4.44641 11.12855 6.31934 16.89111 3.05732 9.3775 6.49473 18.61006 10.24316 27.73389 2.39581 5.89893 4.43334 11.9287 6.51343 17.94434 2.51213 7.25932 5.19398 14.42405 8.02954 21.56347.4415 1.1202.883 2.2404 1.33789 3.39453a1172 1172 0 0 0 2.77344 6.96875l1.32617 3.38672 1.21167 3.05127c1.66162 5.61457.84941 9.7471-1.14136 15.15967l-1.29883 3.57813L259.3125 310.5l-1.31836 3.60938a2086 2086 0 0 1-2.65454 7.22607c-.91478 2.50242-1.81484 5.0054-2.69287 7.5205l-1.3108 3.74561-1.1665 3.36963C248.57213 340.10816 246.63616 343.43762 244 347h-2l-.78516 1.78906c-4.33232 7.88455-14.33241 13.1377-22.53125 16.02735C213.05991 366.25502 206.74533 366.91336 201 366c-4.51517-6.77275-5.47004-16.09522-7-24 2.93455-.97818 5.42828-1.1699 8.49756-1.29004 10.22027-.1117 10.22027-.1117 19.50244-3.70996 1.18022-2.3432 1.18022-2.3432 2-5l.89453-2.21875c2.3508-5.84198 4.62356-11.71131 6.8711-17.59375 1.42482-3.6793 2.91647-7.32827 4.4375-10.96875 2.91421-8.1141.00989-14.34733-3.44532-21.95312L231.5 276.625c-2.47926-5.25332-3.96217-10.5862-5.48437-16.17969-1.21893-4.13495-2.82321-7.98684-4.53516-11.9375-6.63893-15.73024-12.34237-31.91486-17.66797-48.13281-1.39732-4.23779-3.04553-8.27563-4.8125-12.375-4.79252-11.55844-8.50064-23.78398-4-36 1.22667-2.43001 2.55423-4.68677 4-7h2v-2c8.52558-6.39419 19.33852-5.31101 29.4336-5.30078"/></svg>
