<?xml version="1.0" standalone="no"?>
<!DOCTYPE svg PUBLIC "-
 "http://www.w3.org/TR/2001/REC-SVG-20010904/DTD/svg10.dtd">
<svg version="1.0" xmlns="http://www.w3.org/2000/svg" width="50.000000pt" height="50.000000pt" viewBox="0 0 1000.000000 1000.000000" preserveAspectRatio="xMidYMid meet">
  <g transform="translate(0.000000,1000.000000) scale(0.100000,-0.100000)" fill="currentcolor" stroke="none">
    <path d="M4000 8350 c-222 -11 -347 -51 -493 -161 -119 -90 -209 -247 -237
-416 -23 -138 16 -296 163 -673 14 -36 56 -148 93 -250 123 -341 215 -594 344
-940 37 -102 79 -216 93 -255 14 -38 39 -106 55 -150 16 -44 60 -163 96 -265
37 -102 80 -219 96 -260 16 -41 40 -106 54 -145 13 -38 48 -131 76 -205 29
-74 73 -196 100 -270 26 -74 85 -234 130 -355 73 -197 82 -225 77 -270 -3 -27
-46 -158 -95 -290 -50 -132 -109 -292 -132 -355 -172 -475 -217 -567 -326
-669 -130 -122 -280 -161 -619 -161 -101 0 -190 -3 -199 -6 -21 -8 -20 -41 3
-100 11 -27 33 -86 50 -132 109 -291 135 -348 163 -363 58 -31 321 15 518 91
30 11 69 26 85 32 17 6 68 31 113 55 261 136 468 336 594 574 31 57 148 339
148 354 0 3 11 31 25 61 14 30 25 58 25 63 0 8 30 87 51 136 5 11 31 83 60
160 28 77 67 181 86 230 61 156 93 263 93 313 0 71 -22 147 -111 390 -10 28
-28 77 -39 107 -11 30 -29 80 -40 110 -11 30 -29 80 -40 110 -11 30 -29 79
-39 108 -10 28 -33 88 -50 132 -16 44 -53 143 -82 220 -28 77 -73 201 -101
275 -28 74 -86 234 -129 355 -44 121 -91 249 -106 285 -14 36 -57 151 -95 255
-38 105 -87 240 -109 300 -53 142 -107 292 -158 430 -51 141 -89 243 -141 380
-24 61 -69 187 -102 280 -33 94 -66 189 -75 213 -28 79 -135 72 1137 72 997 0
1141 -2 1146 -15 6 -15 -28 -117 -157 -465 -82 -224 -139 -383 -175 -490 -26
-76 -70 -198 -151 -415 -72 -193 -130 -291 -242 -407 -65 -69 -47 -66 219 36
52 21 160 60 240 88 244 85 285 104 332 157 58 65 100 154 197 416 45 121 94
249 108 285 84 213 181 489 209 595 35 133 31 251 -15 368 -51 131 -107 206
-221 298 -56 45 -107 71 -204 104 -157 53 -201 55 -1216 53 -514 -1 -1000 -4
-1080 -8z"/>
  </g>
</svg>
