<?xml version="1.0" encoding="UTF-8"?>
<svg xmlns="http://www.w3.org/2000/svg" xmlns:xlink="http://www.w3.org/1999/xlink" width="13px" height="24px" viewBox="0 0 13 24" version="1.1">
<g id="surface1">
<path style=" stroke:none;fill-rule:nonzero;fill:rgb(14.117648%,15.294118%,28.235295%);fill-opacity:1;" d="M 4.207031 0.277344 C 4.371094 0.273438 4.539062 0.273438 4.707031 0.273438 C 5.054688 0.273438 5.402344 0.273438 5.75 0.273438 C 6.195312 0.273438 6.640625 0.273438 7.085938 0.269531 C 7.429688 0.269531 7.773438 0.269531 8.117188 0.269531 C 8.28125 0.269531 8.445312 0.269531 8.609375 0.269531 C 10.253906 0.257812 10.253906 0.257812 11.023438 0.613281 L 11.222656 0.703125 C 11.898438 1.039062 12.292969 1.546875 12.53125 2.238281 C 12.65625 2.753906 12.609375 3.265625 12.480469 3.777344 L 12.273438 3.777344 L 12.296875 4.019531 C 12.261719 4.535156 12.058594 4.941406 11.855469 5.414062 C 11.765625 5.636719 11.675781 5.859375 11.589844 6.082031 L 11.457031 6.421875 C 11.355469 6.691406 11.269531 6.960938 11.1875 7.238281 C 11.015625 7.722656 10.835938 8.074219 10.398438 8.375 C 9.894531 8.597656 9.367188 8.753906 8.835938 8.917969 C 8.605469 8.992188 8.605469 8.992188 8.289062 9.15625 C 8.007812 9.292969 8.007812 9.292969 7.59375 9.292969 L 7.59375 9.496094 L 7.070312 9.496094 C 7.089844 9.269531 7.089844 9.269531 7.175781 8.988281 C 7.347656 8.851562 7.523438 8.714844 7.695312 8.578125 C 8.113281 7.980469 8.308594 7.324219 8.527344 6.636719 C 8.597656 6.433594 8.667969 6.230469 8.734375 6.027344 L 8.945312 6.027344 L 8.976562 5.765625 C 9.039062 5.449219 9.136719 5.195312 9.273438 4.902344 C 9.441406 4.507812 9.550781 4.089844 9.671875 3.675781 L 9.878906 3.675781 L 9.867188 3.445312 C 9.878906 3.164062 9.878906 3.164062 10.089844 2.757812 L 2.601562 2.757812 L 3.015625 3.574219 C 3.089844 3.769531 3.15625 3.96875 3.21875 4.167969 C 3.347656 4.570312 3.492188 4.945312 3.679688 5.324219 C 3.949219 5.882812 4.140625 6.460938 4.335938 7.046875 C 4.652344 8.007812 5.011719 8.949219 5.402344 9.878906 C 5.652344 10.484375 5.863281 11.097656 6.078125 11.714844 C 6.339844 12.453125 6.617188 13.1875 6.914062 13.914062 C 6.960938 14.03125 7.003906 14.144531 7.054688 14.261719 C 7.148438 14.5 7.246094 14.738281 7.339844 14.972656 L 7.480469 15.320312 L 7.605469 15.632812 C 7.777344 16.203125 7.695312 16.628906 7.488281 17.179688 L 7.351562 17.546875 L 7.207031 17.921875 L 7.070312 18.292969 C 6.980469 18.539062 6.886719 18.785156 6.796875 19.03125 C 6.699219 19.285156 6.605469 19.542969 6.515625 19.796875 L 6.378906 20.179688 L 6.257812 20.523438 C 6.089844 20.945312 5.890625 21.289062 5.617188 21.652344 L 5.40625 21.652344 L 5.328125 21.832031 C 4.875 22.640625 3.835938 23.175781 2.984375 23.46875 C 2.398438 23.617188 1.742188 23.683594 1.144531 23.589844 C 0.675781 22.898438 0.574219 21.949219 0.414062 21.140625 C 0.722656 21.039062 0.980469 21.019531 1.300781 21.007812 C 2.363281 20.996094 2.363281 20.996094 3.328125 20.628906 C 3.449219 20.390625 3.449219 20.390625 3.535156 20.121094 L 3.628906 19.890625 C 3.875 19.296875 4.109375 18.695312 4.34375 18.097656 C 4.492188 17.71875 4.648438 17.347656 4.804688 16.976562 C 5.109375 16.148438 4.804688 15.511719 4.445312 14.734375 L 4.316406 14.464844 C 4.058594 13.925781 3.902344 13.382812 3.746094 12.8125 C 3.617188 12.390625 3.453125 11.996094 3.273438 11.59375 C 2.582031 9.984375 1.992188 8.332031 1.4375 6.675781 C 1.292969 6.242188 1.121094 5.832031 0.9375 5.414062 C 0.4375 4.230469 0.0507812 2.984375 0.519531 1.734375 C 0.648438 1.488281 0.785156 1.257812 0.9375 1.019531 L 1.144531 1.019531 L 1.144531 0.816406 C 2.03125 0.164062 3.15625 0.273438 4.207031 0.277344 "/>
</g>
</svg>
